<?xml version="1.0" encoding="UTF-8"?>
<!DOCTYPE svg PUBLIC "-//W3C//DTD SVG 1.1//EN" "http://www.w3.org/Graphics/SVG/1.1/DTD/svg11.dtd">
<!-- Creator: CorelDRAW 2020 (64 Bit) -->
<svg xmlns="http://www.w3.org/2000/svg" xml:space="preserve" width="43.3492mm" height="43.3492mm" version="1.1" style="shape-rendering:geometricPrecision; text-rendering:geometricPrecision; image-rendering:optimizeQuality; fill-rule:evenodd; clip-rule:evenodd"
viewBox="0 0 4334.92 4334.92"
 xmlns:xlink="http://www.w3.org/1999/xlink"
 xmlns:xodm="http://www.corel.com/coreldraw/odm/2003">
 <defs>
  <style type="text/css">
   <![CDATA[
    .fil0 {fill:#FD8127}
   ]]>
  </style>
 </defs>
 <g id="Camada_x0020_1">
  <metadata id="CorelCorpID_0Corel-Layer"/>
  <g id="_2154637554032">
   <path class="fil0" d="M2163.4 2316.44l628.98 625.65c54.5,54.4 168.31,156.9 202.44,209.02l-1664.06 2.17 832.64 -836.84zm-1512.3 1405.32c126.89,0 107.33,-4.45 172.58,-71.17 198.59,-203.05 146.63,-172.39 317.52,-172.5 78.87,-0.05 157.75,0.03 236.61,0.03l1927 0.05c38.51,3.71 45.72,22.82 74.67,51.25l177.15 177.97c35.17,28.54 398.8,13.83 469.13,11.47l-1862.09 -1861.07c-35.33,22.99 -81.31,77.07 -115.16,110.65 -40.1,39.78 -74.41,74.02 -114.21,113.97l-570.43 570.34c-31.74,31.17 -76.96,82.88 -110.64,103.94l-1.26 -445.61 -319.58 2.27c-6.62,110.55 4.19,732.51 -4.33,765.56 -8.65,33.5 -557.7,564.65 -627.88,642.37l350.92 0.48z"/>
   <path class="fil0" d="M1682.02 1493.96c-25.09,-13.31 -21.31,-17.56 -42.26,-30.04 -97.81,116.86 -334.27,205.46 -231.43,310.16l208.07 197.75c92.39,85.35 120.54,-10.62 212.7,-121.24 24.7,-29.65 79.15,-89.89 90.98,-121.89l-32.77 -33.45c8.54,-20.9 83.22,-133.68 163.67,-108.2 37.38,11.84 15.75,24.3 66.02,33.58l45.82 -53.7 1743.02 1732.01c26.68,26.17 86.72,100.2 125.73,115.81 0.45,-70.01 10.9,-426.94 -8.82,-461.04 -2.31,-3.98 -217.19,-200.17 -242.51,-222.08 -237.74,-205.78 -486.53,-451.71 -728.17,-666.11 -203.68,-180.73 -405.19,-382.3 -603.94,-553.64l-120.21 -114.2c14.2,-22.1 34.87,-39.54 52.99,-58.06 -38.01,-95.69 -143.29,-223.7 -27.39,-435.03 101.6,-185.25 210.99,-220.05 267.11,-291.63 -405.96,-33.67 -727.76,242.99 -851.83,568.67 -58.79,154.33 9.87,79.48 16.38,167.13 4.38,58.89 -71.22,131.79 -103.16,145.2z"/>
   <path class="fil0" d="M2119.76 2679.73c-201.01,59.67 -116.73,353.06 82.39,304.04 191.83,-47.22 128.86,-366.73 -82.39,-304.04z"/>
  </g>
 </g>
</svg>
